<svg width="24" height="25" viewBox="0 0 24 25" fill="none" xmlns="http://www.w3.org/2000/svg">
<g id="call-calling">
<g id="call-calling_2">
<path id="Vector" d="M21.97 18.7968C21.97 19.1568 21.89 19.5268 21.72 19.8868C21.55 20.2468 21.33 20.5868 21.04 20.9068C20.55 21.4468 20.01 21.8368 19.4 22.0868C18.8 22.3368 18.15 22.4668 17.45 22.4668C16.43 22.4668 15.34 22.2268 14.19 21.7368C13.04 21.2468 11.89 20.5868 10.75 19.7568C9.6 18.9168 8.51 17.9868 7.47 16.9568C6.44 15.9168 5.51 14.8268 4.68 13.6868C3.86 12.5468 3.2 11.4068 2.72 10.2768C2.24 9.1368 2 8.0468 2 7.0068C2 6.3268 2.12 5.6768 2.36 5.0768C2.6 4.4668 2.98 3.9068 3.51 3.4068C4.15 2.7768 4.85 2.4668 5.59 2.4668C5.87 2.4668 6.15 2.5268 6.4 2.6468C6.66 2.7668 6.89 2.9468 7.07 3.2068L9.39 6.4768C9.57 6.7268 9.7 6.9568 9.79 7.1768C9.88 7.3868 9.93 7.5968 9.93 7.7868C9.93 8.0268 9.86 8.2668 9.72 8.4968C9.59 8.7268 9.4 8.9668 9.16 9.2068L8.4 9.9968C8.29 10.1068 8.24 10.2368 8.24 10.3968C8.24 10.4768 8.25 10.5468 8.27 10.6268C8.3 10.7068 8.33 10.7668 8.35 10.8268C8.53 11.1568 8.84 11.5868 9.28 12.1068C9.73 12.6268 10.21 13.1568 10.73 13.6868C11.27 14.2168 11.79 14.7068 12.32 15.1568C12.84 15.5968 13.27 15.8968 13.61 16.0768C13.66 16.0968 13.72 16.1268 13.79 16.1568C13.87 16.1868 13.95 16.1968 14.04 16.1968C14.21 16.1968 14.34 16.1368 14.45 16.0268L15.21 15.2768C15.46 15.0268 15.7 14.8368 15.93 14.7168C16.16 14.5768 16.39 14.5068 16.64 14.5068C16.83 14.5068 17.03 14.5468 17.25 14.6368C17.47 14.7268 17.7 14.8568 17.95 15.0268L21.26 17.3768C21.52 17.5568 21.7 17.7668 21.81 18.0168C21.91 18.2668 21.97 18.5168 21.97 18.7968Z" stroke="black" stroke-width="1.5" stroke-miterlimit="10"/>
<path id="Vector_2" d="M18.5 9.4668C18.5 8.8668 18.03 7.9468 17.33 7.1968C16.69 6.5068 15.84 5.9668 15 5.9668" stroke="#CB10BF" stroke-width="1.5" stroke-linecap="round" stroke-linejoin="round"/>
<path id="Vector_3" d="M22 9.4668C22 5.5968 18.87 2.4668 15 2.4668" stroke="#CB10BF" stroke-width="1.5" stroke-linecap="round" stroke-linejoin="round"/>
</g>
</g>
</svg>
