<svg width="81" height="80" viewBox="0 0 81 80" fill="none" xmlns="http://www.w3.org/2000/svg">
<g id="huawei" clip-path="url(#clip0_366_533)">
<path id="Vector" d="M12.74 20.4702C12.74 20.4702 6.5675 26.3677 6.23 32.6052V33.7652C6.5025 38.8052 10.305 41.7727 10.305 41.7727C16.4 47.7352 31.165 55.2352 34.6275 56.9302C34.6275 56.9302 34.835 57.0352 34.965 56.9052L35.03 56.7752V56.6327C25.565 36.0077 12.7375 20.4727 12.7375 20.4727L12.74 20.4702ZM32.6625 62.0052C32.5975 61.7327 32.3375 61.7327 32.3375 61.7327L7.74 62.6052C10.3975 67.3702 14.9025 71.0302 19.6025 69.9352C22.805 69.1027 30.1375 63.9977 32.5325 62.2652C32.74 62.0952 32.6625 61.9652 32.6625 61.9652V62.0052ZM32.935 59.4002C22.1275 52.0952 1.2025 40.9377 1.2025 40.9377C0.695 42.4602 0.5375 43.9327 0.5 45.2602V45.4952C0.5 49.0627 1.8275 51.5627 1.8275 51.5627C4.4975 57.2002 9.6275 58.9077 9.6275 58.9077C11.9725 59.8977 14.3025 59.9352 14.3025 59.9352C14.705 60.0002 28.965 59.9352 32.765 59.9352C32.935 59.9352 33.0375 59.7652 33.0375 59.7652V59.5702C33.0375 59.4652 32.9325 59.4002 32.9325 59.4002H32.935ZM30.695 10.6377C25.85 11.8752 22.375 16.1327 22.1275 21.1327V22.5002C22.2325 24.5052 22.6625 26.0027 22.6625 26.0027C24.8625 35.6652 35.54 51.4977 37.8325 54.8302C38.0025 55.0002 38.17 54.9352 38.17 54.9352C38.3 54.8827 38.3775 54.7402 38.365 54.5977C41.9075 19.2727 34.6675 9.87018 34.6675 9.87018C33.6 9.93518 30.695 10.6377 30.695 10.6377ZM58.365 18.2027C58.365 18.2027 56.7375 12.2002 50.24 10.5977C50.24 10.5977 48.34 10.1277 46.3325 9.86768C46.3325 9.86768 39.0675 19.2302 42.595 54.6327C42.635 54.8677 42.8025 54.8927 42.8025 54.8927C43.0375 54.9977 43.1275 54.8027 43.1275 54.8027C45.5375 51.3652 56.135 35.5977 58.2975 26.0002C58.2975 26.0002 59.495 21.3252 58.3625 18.2002L58.365 18.2027ZM48.6375 61.7702C48.6375 61.7702 48.4025 61.7702 48.3375 61.9277C48.3375 61.9277 48.2975 62.1627 48.4275 62.2652C50.7575 63.9702 57.9325 68.9327 61.37 69.9352C61.37 69.9352 61.905 70.1052 62.8025 70.1302H63.2575C65.5625 70.0652 69.5975 68.9052 73.2575 62.6052L48.595 61.7727L48.6375 61.7702ZM74.7325 33.7377C75.2025 26.8627 68.26 20.4952 68.26 20.4702C68.26 20.4702 55.435 36.0052 46.0325 56.4727C46.0325 56.4727 45.9275 56.7327 46.0975 56.9027L46.2275 56.9277H46.435C49.9625 55.1702 64.625 47.6952 70.6925 41.7977C70.6925 41.7977 74.5325 38.6977 74.73 33.7377H74.7325ZM79.7975 40.8727C79.7975 40.8727 58.8725 52.0977 48.065 59.3627C48.065 59.3627 47.895 59.5052 47.96 59.7402C47.96 59.7402 48.065 59.9352 48.195 59.9352C52.0625 59.9352 66.7375 59.9352 67.1025 59.8702C67.1025 59.8702 69.0025 59.8052 71.335 58.9077C71.335 58.9077 76.53 57.2402 79.2375 51.3302C79.2375 51.3302 81.6725 46.4977 79.7975 40.8727Z" fill="black"/>
</g>
<defs>
<clipPath id="clip0_366_533">
<rect width="80" height="80" fill="white" transform="translate(0.5)"/>
</clipPath>
</defs>
</svg>
