<svg width="33" height="32" viewBox="0 0 33 32" fill="none" xmlns="http://www.w3.org/2000/svg">
<g id="icon/phone">
<g id="Vector">
<path d="M12.8333 2.66659C12.8333 1.93021 13.4303 1.33325 14.1667 1.33325H19.5C20.2364 1.33325 20.8333 1.93021 20.8333 2.66659V3.99992C20.8333 4.73629 20.2364 5.33325 19.5 5.33325H14.1667C13.4303 5.33325 12.8333 4.73629 12.8333 3.99992V2.66659Z" fill="black"/>
<path fill-rule="evenodd" clip-rule="evenodd" d="M10.8333 3.33325C10.097 3.33325 9.5 3.93021 9.5 4.66659V27.3333C9.5 28.0696 10.097 28.6666 10.8333 28.6666H22.8333C23.5697 28.6666 24.1667 28.0696 24.1667 27.3333V4.66659C24.1667 3.93021 23.5697 3.33325 22.8333 3.33325H10.8333ZM7.5 4.66659C7.5 2.82564 8.99238 1.33325 10.8333 1.33325H22.8333C24.6743 1.33325 26.1667 2.82564 26.1667 4.66659V27.3333C26.1667 29.1742 24.6743 30.6666 22.8333 30.6666H10.8333C8.99238 30.6666 7.5 29.1742 7.5 27.3333V4.66659Z" fill="black"/>
<path fill-rule="evenodd" clip-rule="evenodd" d="M11.8333 25.9999C11.8333 25.4476 12.281 24.9999 12.8333 24.9999H20.8333C21.3856 24.9999 21.8333 25.4476 21.8333 25.9999C21.8333 26.5522 21.3856 26.9999 20.8333 26.9999H12.8333C12.281 26.9999 11.8333 26.5522 11.8333 25.9999Z" fill="black"/>
</g>
</g>
</svg>
