<svg width="80" height="80" viewBox="0 0 80 80" fill="none" xmlns="http://www.w3.org/2000/svg">
<g id="repair-services" clip-path="url(#clip0_236_47)">
<path id="Vector" d="M77.3336 13.3333H72.0002C71.293 13.3333 70.6147 13.6143 70.1146 14.1144C69.6145 14.6145 69.3335 15.2928 69.3335 16V17.3333C69.3335 17.687 69.1931 18.0261 68.943 18.2761C68.693 18.5262 68.3538 18.6667 68.0002 18.6667H52.0001C51.6465 18.6667 51.3074 18.5262 51.0573 18.2761C50.8073 18.0261 50.6668 17.687 50.6668 17.3333V16C50.6668 15.2928 50.3859 14.6145 49.8858 14.1144C49.3857 13.6143 48.7074 13.3333 48.0001 13.3333V6.66667C47.998 4.89921 47.295 3.20474 46.0452 1.95496C44.7954 0.705176 43.1009 0.00211714 41.3335 0L6.66669 0C4.89922 0.00211714 3.20475 0.705176 1.95497 1.95496C0.705178 3.20474 0.00211715 4.89921 0 6.66667L0 70.6667C0.00211715 72.4341 0.705178 74.1286 1.95497 75.3784C3.20475 76.6282 4.89922 77.3312 6.66669 77.3333H40.0001C40.0001 78.0406 40.2811 78.7189 40.7812 79.219C41.2813 79.7191 41.9595 80 42.6668 80H77.3336C78.0408 80 78.7191 79.7191 79.2192 79.219C79.7193 78.7189 80.0002 78.0406 80.0002 77.3333V16C80.0002 15.2928 79.7193 14.6145 79.2192 14.1144C78.7191 13.6143 78.0408 13.3333 77.3336 13.3333ZM40.0001 74.6667H6.66669C5.60582 74.6667 4.5884 74.2452 3.83825 73.4951C3.0881 72.7449 2.66667 71.7275 2.66667 70.6667V6.66667C2.66667 5.6058 3.0881 4.58839 3.83825 3.83824C4.5884 3.08809 5.60582 2.66667 6.66669 2.66667H41.3335C42.3943 2.66667 43.4117 3.08809 44.1619 3.83824C44.912 4.58839 45.3335 5.6058 45.3335 6.66667V13.3333H42.6668V8C42.6668 7.29276 42.3858 6.61448 41.8857 6.11438C41.3856 5.61428 40.7074 5.33333 40.0001 5.33333H36.0001C35.2929 5.33333 34.6146 5.61428 34.1145 6.11438C33.6144 6.61448 33.3334 7.29276 33.3334 8V9.33333C33.3334 9.68696 33.193 10.0261 32.9429 10.2761C32.6929 10.5262 32.3537 10.6667 32.0001 10.6667H16C15.6464 10.6667 15.3073 10.5262 15.0572 10.2761C14.8072 10.0261 14.6667 9.68696 14.6667 9.33333V8C14.6667 7.29276 14.3858 6.61448 13.8857 6.11438C13.3856 5.61428 12.7073 5.33333 12 5.33333H8.00002C7.29278 5.33333 6.6145 5.61428 6.1144 6.11438C5.6143 6.61448 5.33335 7.29276 5.33335 8V69.3333C5.33335 70.0406 5.6143 70.7189 6.1144 71.219C6.6145 71.7191 7.29278 72 8.00002 72H40.0001V74.6667ZM40.0001 69.3333H8.00002V8H12V9.33333C12 10.3942 12.4215 11.4116 13.1716 12.1618C13.9218 12.9119 14.9392 13.3333 16 13.3333H32.0001C33.061 13.3333 34.0784 12.9119 34.8285 12.1618C35.5787 11.4116 36.0001 10.3942 36.0001 9.33333V8H40.0001V69.3333ZM42.6668 77.3333V16H48.0001V17.3333C48.0001 18.3942 48.4216 19.4116 49.1717 20.1618C49.9219 20.9119 50.9393 21.3333 52.0001 21.3333H68.0002C69.0611 21.3333 70.0785 20.9119 70.8286 20.1618C71.5788 19.4116 72.0002 18.3942 72.0002 17.3333V16H77.3336V77.3333H42.6668Z" fill="black"/>
<path id="Vector_2" d="M33.2278 36.6573L36.9425 32.9427C37.1854 32.6912 37.3198 32.3544 37.3168 32.0048C37.3137 31.6552 37.1735 31.3208 36.9263 31.0736C36.6791 30.8264 36.3447 30.6861 35.9951 30.6831C35.6455 30.6801 35.3087 30.8145 35.0572 31.0573L31.4478 34.6667H28.7132L26.6665 31.6V21.3333C26.6665 20.9797 26.526 20.6406 26.276 20.3905C26.0259 20.1405 25.6868 20 25.3332 20C24.9795 20 24.6404 20.1405 24.3903 20.3905C24.1403 20.6406 23.9998 20.9797 23.9998 21.3333V31.6L21.9531 34.6667H16.5518L14.2758 32.3907C14.0243 32.1478 13.6875 32.0134 13.3379 32.0164C12.9883 32.0195 12.6539 32.1597 12.4067 32.4069C12.1595 32.6541 12.0193 32.9885 12.0162 33.3381C12.0132 33.6877 12.1476 34.0245 12.3905 34.276L14.7718 36.6573L15.9731 42.6667L14.7731 48.676L12.3905 51.0573C12.2631 51.1803 12.1615 51.3275 12.0916 51.4901C12.0218 51.6528 11.985 51.8278 11.9834 52.0048C11.9819 52.1818 12.0156 52.3574 12.0827 52.5213C12.1497 52.6851 12.2487 52.834 12.3739 52.9592C12.4991 53.0844 12.648 53.1834 12.8118 53.2504C12.9757 53.3175 13.1513 53.3512 13.3283 53.3497C13.5054 53.3481 13.6803 53.3113 13.843 53.2415C14.0057 53.1716 14.1528 53.07 14.2758 52.9427L16.6758 50.5427L20.8198 49.508L25.4158 55.2547L26.6865 61.6013C26.7485 61.9034 26.9132 62.1746 27.1527 62.3688C27.3921 62.5631 27.6915 62.6683 27.9998 62.6667C28.0894 62.6672 28.1788 62.6582 28.2665 62.64C28.4381 62.605 28.6012 62.5366 28.7463 62.4385C28.8914 62.3405 29.0159 62.2149 29.1124 62.0688C29.209 61.9227 29.2759 61.759 29.3092 61.587C29.3425 61.4151 29.3416 61.2383 29.3065 61.0667L28.0265 54.6667L29.1412 49.088L33.1772 48.08L35.4039 49.1933C35.5606 49.2716 35.7312 49.3182 35.9059 49.3306C36.0806 49.3429 36.2561 49.3207 36.4222 49.2652C36.5884 49.2098 36.742 49.1221 36.8743 49.0073C37.0066 48.8925 37.1149 48.7527 37.1932 48.596C37.2715 48.4393 37.3181 48.2687 37.3304 48.094C37.3428 47.9192 37.3206 47.7438 37.2651 47.5776C37.2096 47.4115 37.122 47.2579 37.0072 47.1256C36.8923 46.9933 36.7526 46.8849 36.5959 46.8067L34.2465 45.632L32.0825 42.3867L33.2278 36.6573ZM27.6772 46.7067C27.4323 46.7679 27.2098 46.8974 27.0356 47.0801C26.8614 47.2628 26.7427 47.4911 26.6932 47.7387L25.9198 51.6L22.3745 47.168C22.215 46.9688 22.0017 46.8196 21.7599 46.7381C21.5181 46.6566 21.258 46.6461 21.0105 46.708L17.7198 47.5293L18.6398 42.9293C18.6758 42.757 18.6758 42.579 18.6398 42.4067L17.6265 37.3333H22.6665C22.8859 37.3334 23.102 37.2792 23.2955 37.1757C23.489 37.0722 23.654 36.9226 23.7758 36.74L25.3332 34.4L26.8905 36.736C27.0118 36.9193 27.1766 37.0697 27.3702 37.174C27.5637 37.2782 27.78 37.3329 27.9998 37.3333H30.3732L29.3598 42.4C29.3254 42.5717 29.325 42.7485 29.3589 42.9203C29.3928 43.0921 29.4601 43.2556 29.5572 43.4013L31.1745 45.8267L27.6772 46.7067Z" fill="#CB10BF"/>
<path id="Vector_3" d="M18.6668 7.99992H20.0002C20.3538 7.99992 20.6929 7.85944 20.943 7.60939C21.193 7.35935 21.3335 7.02021 21.3335 6.66659C21.3335 6.31296 21.193 5.97383 20.943 5.72378C20.6929 5.47373 20.3538 5.33325 20.0002 5.33325H18.6668C18.3132 5.33325 17.9741 5.47373 17.724 5.72378C17.474 5.97383 17.3335 6.31296 17.3335 6.66659C17.3335 7.02021 17.474 7.35935 17.724 7.60939C17.9741 7.85944 18.3132 7.99992 18.6668 7.99992Z" fill="black"/>
<path id="Vector_4" d="M25.3333 7.99992H29.3334C29.687 7.99992 30.0261 7.85944 30.2762 7.60939C30.5262 7.35935 30.6667 7.02021 30.6667 6.66659C30.6667 6.31296 30.5262 5.97383 30.2762 5.72378C30.0261 5.47373 29.687 5.33325 29.3334 5.33325H25.3333C24.9797 5.33325 24.6406 5.47373 24.3905 5.72378C24.1405 5.97383 24 6.31296 24 6.66659C24 7.02021 24.1405 7.35935 24.3905 7.60939C24.6406 7.85944 24.9797 7.99992 25.3333 7.99992Z" fill="black"/>
<path id="Vector_5" d="M48 29.3333C48.3536 29.3332 48.6927 29.1927 48.9427 28.9426L51.6094 26.276C51.8523 26.0245 51.9867 25.6877 51.9836 25.3381C51.9806 24.9885 51.8404 24.6541 51.5932 24.4069C51.3459 24.1597 51.0115 24.0194 50.6619 24.0164C50.3123 24.0134 49.9755 24.1478 49.7241 24.3906L47.0574 27.0573C46.871 27.2438 46.744 27.4813 46.6926 27.7399C46.6412 27.9985 46.6676 28.2666 46.7685 28.5102C46.8694 28.7538 47.0402 28.962 47.2594 29.1085C47.4786 29.255 47.7364 29.3333 48 29.3333Z" fill="black"/>
<path id="Vector_6" d="M57.7241 24.3906L47.0574 35.0573C46.9301 35.1803 46.8285 35.3274 46.7586 35.4901C46.6888 35.6528 46.652 35.8277 46.6504 36.0048C46.6489 36.1818 46.6826 36.3574 46.7497 36.5212C46.8167 36.6851 46.9157 36.834 47.0409 36.9592C47.1661 37.0844 47.315 37.1834 47.4788 37.2504C47.6427 37.3174 47.8183 37.3512 47.9953 37.3496C48.1724 37.3481 48.3473 37.3113 48.51 37.2414C48.6727 37.1716 48.8198 37.07 48.9428 36.9426L59.6095 26.276C59.8524 26.0245 59.9868 25.6877 59.9837 25.3381C59.9807 24.9885 59.8405 24.6541 59.5932 24.4069C59.346 24.1597 59.0116 24.0194 58.662 24.0164C58.3124 24.0134 57.9756 24.1478 57.7241 24.3906Z" fill="black"/>
</g>
<defs>
<clipPath id="clip0_236_47">
<rect width="80.0002" height="80" fill="white"/>
</clipPath>
</defs>
</svg>
