<svg width="33" height="32" viewBox="0 0 33 32" fill="none" xmlns="http://www.w3.org/2000/svg">
<g id="icon/tablet">
<g id="Vector">
<path fill-rule="evenodd" clip-rule="evenodd" d="M8.58527 5.41916C8.00695 5.49692 7.8257 5.62245 7.7242 5.72394C7.62271 5.82544 7.49716 6.00671 7.41941 6.58503C7.3365 7.2017 7.33367 8.03865 7.33367 9.33342V22.6668C7.33367 23.9615 7.3365 24.7985 7.41941 25.4151C7.49716 25.9934 7.62269 26.1747 7.7242 26.2762C7.8257 26.3777 8.00696 26.5033 8.58527 26.581C9.20194 26.6639 10.0389 26.6668 11.3337 26.6668H22.0003C23.2951 26.6668 24.132 26.6639 24.7487 26.581C25.327 26.5033 25.5083 26.3777 25.6098 26.2762C25.7113 26.1747 25.8368 25.9934 25.9146 25.4151C25.9975 24.7984 26.0003 23.9615 26.0003 22.6668V9.33342C26.0003 8.03865 25.9975 7.2017 25.9146 6.58503C25.8368 6.00672 25.7113 5.82546 25.6098 5.72397C25.5083 5.62245 25.327 5.49692 24.7487 5.41916C24.132 5.33625 23.2951 5.33342 22.0003 5.33342H11.3337C10.0389 5.33342 9.20194 5.33625 8.58527 5.41916ZM11.2459 2.66675C11.275 2.66675 11.3043 2.66675 11.3337 2.66675L22.0881 2.66675C23.2701 2.66669 24.2885 2.66663 25.104 2.77628C25.978 2.89379 26.8158 3.15878 27.4954 3.83832C28.175 4.51786 28.44 5.35567 28.5575 6.22969C28.6671 7.04524 28.6671 8.06366 28.667 9.24564V22.7545C28.6671 23.9365 28.6671 24.9549 28.5575 25.7705C28.44 26.6445 28.175 27.4823 27.4954 28.1618C26.8159 28.8414 25.9781 29.1064 25.104 29.2239C24.2885 29.3335 23.2701 29.3335 22.0881 29.3334H11.2459C10.0639 29.3335 9.04548 29.3335 8.22994 29.2239C7.35591 29.1064 6.51811 28.8414 5.83856 28.1618C5.15902 27.4823 4.89403 26.6445 4.77652 25.7705C4.66687 24.9549 4.66693 23.9365 4.667 22.7545L4.667 9.33342C4.667 9.30406 4.667 9.27481 4.667 9.24565C4.66693 8.06366 4.66687 7.04524 4.77652 6.2297C4.89403 5.35568 5.15902 4.51788 5.83857 3.83834M5.83857 3.83834C6.51811 3.15879 7.35593 2.89379 8.22994 2.77628C9.04549 2.66663 10.0639 2.66669 11.2459 2.66675" fill="black"/>
<path fill-rule="evenodd" clip-rule="evenodd" d="M14.667 24.0001C14.667 23.2637 15.264 22.6668 16.0003 22.6668H17.3337C18.07 22.6668 18.667 23.2637 18.667 24.0001C18.667 24.7365 18.07 25.3334 17.3337 25.3334H16.0003C15.264 25.3334 14.667 24.7365 14.667 24.0001Z" fill="black"/>
</g>
</g>
</svg>
