<svg width="76" height="81" viewBox="0 0 76 81" fill="none" xmlns="http://www.w3.org/2000/svg">
<g id="24 Fast response">
<g id="Group">
<path id="Vector" d="M25.472 40.4758C28.7861 40.4722 31.9634 39.1541 34.3068 36.8107C36.6502 34.4672 37.9684 31.2899 37.972 27.9758V16.7258C37.969 14.4061 37.0462 12.1822 35.4059 10.5419C33.7656 8.90164 31.5417 7.97881 29.222 7.97583H21.722C19.4022 7.97881 17.1783 8.90164 15.538 10.5419C13.8977 12.1822 12.9749 14.4061 12.9719 16.7258V27.9758C12.9756 31.2899 14.2937 34.4672 16.6371 36.8107C18.9805 39.1541 22.1579 40.4722 25.472 40.4758ZM25.472 37.9758C23.9166 37.9736 22.3833 37.6079 20.9944 36.908C19.6054 36.2081 18.3992 35.1933 17.4719 33.9446C18.0387 34.1219 18.6281 34.2166 19.2219 34.2258H26.722C27.0535 34.2258 27.3714 34.0941 27.6059 33.8597C27.8403 33.6253 27.972 33.3074 27.972 32.9758C27.972 32.6443 27.8403 32.3264 27.6059 32.092C27.3714 31.8575 27.0535 31.7258 26.722 31.7258H19.2219C18.2274 31.7258 17.2735 31.3308 16.5703 30.6275C15.867 29.9242 15.4719 28.9704 15.4719 27.9758V19.2258H19.3282C21.4858 19.2264 23.6027 19.8127 25.4532 20.9221C27.6923 22.2658 30.2544 22.9756 32.8657 22.9758H35.472V27.9758C35.469 30.6271 34.4145 33.1689 32.5398 35.0436C30.665 36.9183 28.1232 37.9729 25.472 37.9758ZM21.722 10.4758H29.222C30.879 10.4778 32.4675 11.1369 33.6392 12.3086C34.8109 13.4803 35.47 15.0688 35.472 16.7258V20.4758H32.8657C30.7082 20.4753 28.5912 19.889 26.7407 18.7796C24.5016 17.4359 21.9395 16.726 19.3282 16.7258H15.4719C15.4739 15.0688 16.133 13.4803 17.3047 12.3086C18.4764 11.1369 20.065 10.4778 21.722 10.4758Z" fill="black"/>
<path id="Vector_2" d="M45.1352 45.7427C45.9466 45.9457 46.6668 46.4141 47.1814 47.0734C47.696 47.7327 47.9754 48.5451 47.9753 49.3815V51.7277C47.9753 52.0593 48.107 52.3772 48.3414 52.6116C48.5758 52.846 48.8937 52.9777 49.2253 52.9777C49.5568 52.9777 49.8747 52.846 50.1091 52.6116C50.3436 52.3772 50.4753 52.0593 50.4753 51.7277V49.3815C50.4766 47.9871 50.0111 46.6325 49.1529 45.5335C48.2947 44.4345 47.0933 43.6545 45.7402 43.3177L34.5277 40.5152C34.2343 40.442 33.9243 40.4777 33.6551 40.6156C33.386 40.7535 33.1759 40.9843 33.064 41.2652L31.029 46.3527L25.9389 44.3165C25.6412 44.1975 25.3092 44.1975 25.0114 44.3165L19.9214 46.3527L17.8864 41.264C17.7744 40.9831 17.5644 40.7522 17.2953 40.6143C17.0261 40.4764 16.7161 40.4408 16.4227 40.514L5.21012 43.3165C3.85682 43.6533 2.65526 44.4335 1.79707 45.5327C0.938877 46.632 0.473481 47.9869 0.475102 49.3815V74.2277C0.477087 75.8847 1.13621 77.4733 2.30788 78.645C3.47956 79.8166 5.06812 80.4757 6.72512 80.4777H30.4752C30.8067 80.4777 31.1247 80.346 31.3591 80.1116C31.5935 79.8772 31.7252 79.5593 31.7252 79.2277C31.7252 78.8962 31.5935 78.5783 31.3591 78.3438C31.1247 78.1094 30.8067 77.9777 30.4752 77.9777H6.72512C5.73056 77.9777 4.77673 77.5826 4.07346 76.8794C3.3702 76.1761 2.97511 75.2223 2.97511 74.2277V49.3815C2.97492 48.5451 3.25434 47.7327 3.76893 47.0734C4.28352 46.4141 5.00375 45.9457 5.81512 45.7427L15.9702 43.2052L18.0639 48.4415C18.1248 48.594 18.2151 48.7331 18.3297 48.8507C18.4443 48.9683 18.581 49.0622 18.7319 49.1269C18.8828 49.1917 19.045 49.2261 19.2092 49.2282C19.3734 49.2303 19.5364 49.1999 19.6889 49.139L25.4752 46.824L31.2615 49.139C31.4139 49.1999 31.577 49.2303 31.7412 49.2282C31.9054 49.2261 32.0676 49.1917 32.2185 49.1269C32.3694 49.0622 32.5061 48.9683 32.6207 48.8507C32.7353 48.7331 32.8256 48.594 32.8865 48.4415L34.9752 43.2052L45.1352 45.7427Z" fill="black"/>
<path id="Vector_3" d="M60.4776 55.4763H37.9776C36.983 55.4763 36.0292 55.8714 35.3259 56.5747C34.6226 57.2779 34.2275 58.2318 34.2275 59.2263V79.2263C34.2275 79.5578 34.3592 79.8758 34.5937 80.1102C34.8281 80.3446 35.146 80.4763 35.4775 80.4763H62.9776C63.3091 80.4763 63.6271 80.3446 63.8615 80.1102C64.0959 79.8758 64.2276 79.5578 64.2276 79.2263V59.2263C64.2276 58.2318 63.8325 57.2779 63.1293 56.5747C62.426 55.8714 61.4722 55.4763 60.4776 55.4763ZM61.7276 77.9763H36.7275V59.2263C36.7275 58.8948 36.8592 58.5769 37.0937 58.3424C37.3281 58.108 37.646 57.9763 37.9776 57.9763H60.4776C60.8091 57.9763 61.1271 58.108 61.3615 58.3424C61.5959 58.5769 61.7276 58.8948 61.7276 59.2263V77.9763Z" fill="black"/>
<path id="Vector_4" d="M49.2258 67.9785C49.9162 67.9785 50.4758 67.4189 50.4758 66.7285C50.4758 66.0382 49.9162 65.4785 49.2258 65.4785C48.5355 65.4785 47.9758 66.0382 47.9758 66.7285C47.9758 67.4189 48.5355 67.9785 49.2258 67.9785Z" fill="black"/>
<path id="Vector_5" d="M11.7275 67.974C11.396 67.974 11.0781 68.1057 10.8437 68.3401C10.6092 68.5745 10.4775 68.8925 10.4775 69.224C10.4775 69.5555 10.6092 69.8735 10.8437 70.1079C11.0781 70.3423 11.396 70.474 11.7275 70.474H30.4776C30.5616 70.4747 30.6454 70.4663 30.7276 70.449C30.7673 70.4355 30.8061 70.4197 30.8439 70.4015C30.9248 70.3764 31.0031 70.3433 31.0776 70.3027C31.1447 70.267 31.2083 70.2252 31.2676 70.1777C31.3295 70.1261 31.3864 70.0688 31.4376 70.0065C31.4852 69.9464 31.527 69.8819 31.5626 69.814C31.6406 69.671 31.6886 69.5136 31.7039 69.3515C31.7143 69.3095 31.7222 69.2669 31.7276 69.224C31.7219 69.1818 31.7136 69.1401 31.7026 69.099C31.7052 69.0574 31.7052 69.0156 31.7026 68.974L29.2576 56.7477L30.4401 52.0215C30.4842 51.8608 30.4957 51.693 30.4739 51.5278C30.4522 51.3627 30.3977 51.2035 30.3135 51.0597C30.2294 50.9159 30.1174 50.7904 29.9841 50.6905C29.8508 50.5906 29.6988 50.5184 29.5372 50.4781C29.3756 50.4378 29.2075 50.4302 29.0429 50.4557C28.8783 50.4813 28.7204 50.5395 28.5786 50.6269C28.4368 50.7143 28.3139 50.8292 28.2171 50.9648C28.1204 51.1004 28.0517 51.254 28.0151 51.4165L27.0013 55.474H23.9538L22.9401 51.4215C22.9035 51.259 22.8348 51.1054 22.738 50.9698C22.6413 50.8342 22.5184 50.7193 22.3766 50.6319C22.2348 50.5445 22.0769 50.4863 21.9123 50.4607C21.7477 50.4352 21.5796 50.4428 21.418 50.4831C21.2564 50.5234 21.1044 50.5956 20.9711 50.6955C20.8378 50.7954 20.7258 50.9209 20.6416 51.0647C20.5575 51.2085 20.503 51.3677 20.4812 51.5328C20.4595 51.698 20.471 51.8658 20.5151 52.0265L21.6976 56.7527L19.4526 67.974H11.7275ZM24.0026 57.974H26.9526L28.9526 67.974H22.0026L24.0026 57.974Z" fill="black"/>
<path id="Vector_6" d="M63.3406 15.8414L59.5806 19.6001C59.0804 19.3555 58.5312 19.2273 57.9744 19.2251C57.2327 19.2251 56.5077 19.4451 55.891 19.8571C55.2743 20.2692 54.7937 20.8548 54.5098 21.5401C54.226 22.2253 54.1517 22.9793 54.2964 23.7067C54.4411 24.4341 54.7983 25.1023 55.3227 25.6268C55.8472 26.1512 56.5154 26.5084 57.2428 26.6531C57.9702 26.7978 58.7242 26.7235 59.4094 26.4397C60.0947 26.1558 60.6803 25.6752 61.0924 25.0585C61.5045 24.4418 61.7244 23.7168 61.7244 22.9751C61.7222 22.4183 61.594 21.8691 61.3494 21.3689L65.1094 17.6089C65.3371 17.3731 65.4631 17.0574 65.4602 16.7296C65.4574 16.4019 65.3259 16.0884 65.0942 15.8566C64.8624 15.6248 64.5489 15.4934 64.2212 15.4905C63.8934 15.4877 63.5764 15.6137 63.3406 15.8414ZM57.9744 24.2251C57.7272 24.2251 57.4855 24.1518 57.2799 24.0145C57.0744 23.8771 56.9141 23.6819 56.8195 23.4535C56.7249 23.2251 56.7002 22.9737 56.7484 22.7313C56.7966 22.4888 56.9157 22.2661 57.0905 22.0912C57.2653 21.9164 57.488 21.7974 57.7305 21.7491C57.973 21.7009 58.2243 21.7257 58.4527 21.8203C58.6811 21.9149 58.8764 22.0751 59.0137 22.2807C59.1511 22.4862 59.2244 22.7279 59.2244 22.9751C59.2244 23.3066 59.0927 23.6246 58.8583 23.859C58.6238 24.0934 58.3059 24.2251 57.9744 24.2251Z" fill="#CB10BF"/>
<path id="Vector_7" d="M70.3802 35.3058C73.6439 32.0323 75.4765 27.5983 75.4765 22.9758C75.4765 18.3533 73.6439 13.9194 70.3802 10.6458C70.3677 10.6321 70.364 10.6146 70.3502 10.6021C70.3365 10.5896 70.3202 10.5846 70.3065 10.5721C67.3374 7.61825 63.4043 5.83186 59.2264 5.53958V2.97583H60.4764C60.808 2.97583 61.1259 2.84413 61.3603 2.60971C61.5947 2.37529 61.7264 2.05735 61.7264 1.72583C61.7264 1.39431 61.5947 1.07637 61.3603 0.841947C61.1259 0.607526 60.808 0.47583 60.4764 0.47583L55.4764 0.47583C55.1449 0.47583 54.827 0.607526 54.5925 0.841947C54.3581 1.07637 54.2264 1.39431 54.2264 1.72583C54.2264 2.05735 54.3581 2.37529 54.5925 2.60971C54.827 2.84413 55.1449 2.97583 55.4764 2.97583H56.7264V5.53958C52.5485 5.83186 48.6154 7.61825 45.6464 10.5721C45.6326 10.5846 45.6151 10.5883 45.6026 10.6021C45.5901 10.6158 45.5851 10.6321 45.5726 10.6458C42.309 13.9194 40.4763 18.3533 40.4763 22.9758C40.4763 27.5983 42.309 32.0323 45.5726 35.3058C45.5851 35.3196 45.5889 35.3371 45.6026 35.3496C45.6164 35.3621 45.6326 35.3671 45.6464 35.3796C48.92 38.6432 53.3539 40.4759 57.9764 40.4759C62.5989 40.4759 67.0329 38.6432 70.3065 35.3796C70.3202 35.3671 70.3377 35.3633 70.3502 35.3496C70.3627 35.3358 70.3677 35.3196 70.3802 35.3058ZM68.5827 31.8146C68.4674 31.6952 68.3295 31.6 68.177 31.5345C68.0245 31.469 67.8604 31.4345 67.6945 31.433C67.5285 31.4316 67.3639 31.4632 67.2103 31.5261C67.0566 31.5889 66.9171 31.6817 66.7997 31.7991C66.6823 31.9165 66.5895 32.056 66.5267 32.2096C66.4638 32.3633 66.4322 32.5279 66.4336 32.6938C66.4351 32.8598 66.4696 33.0238 66.5351 33.1763C66.6006 33.3288 66.6958 33.4668 66.8152 33.5821L67.6527 34.4196C65.2773 36.4347 62.3309 37.6559 59.2264 37.9121V36.7258C59.2264 36.3943 59.0947 36.0764 58.8603 35.842C58.6259 35.6075 58.3079 35.4758 57.9764 35.4758C57.6449 35.4758 57.327 35.6075 57.0925 35.842C56.8581 36.0764 56.7264 36.3943 56.7264 36.7258V37.9121C53.622 37.6559 50.6755 36.4347 48.3001 34.4196L49.1377 33.5821C49.257 33.4668 49.3523 33.3288 49.4178 33.1763C49.4833 33.0238 49.5178 32.8598 49.5192 32.6938C49.5207 32.5279 49.489 32.3633 49.4262 32.2096C49.3633 32.056 49.2705 31.9165 49.1531 31.7991C49.0358 31.6817 48.8962 31.5889 48.7426 31.5261C48.589 31.4632 48.4244 31.4316 48.2584 31.433C48.0924 31.4345 47.9284 31.469 47.7759 31.5345C47.6234 31.6 47.4855 31.6952 47.3701 31.8146L46.5326 32.6521C44.5175 30.2767 43.2963 27.3303 43.0401 24.2258H44.2264C44.5579 24.2258 44.8759 24.0941 45.1103 23.8597C45.3447 23.6253 45.4764 23.3074 45.4764 22.9758C45.4764 22.6443 45.3447 22.3264 45.1103 22.092C44.8759 21.8575 44.5579 21.7258 44.2264 21.7258H43.0401C43.2963 18.6214 44.5175 15.675 46.5326 13.2996L47.3701 14.1371C47.4855 14.2565 47.6234 14.3517 47.7759 14.4172C47.9284 14.4827 48.0924 14.5172 48.2584 14.5186C48.4244 14.5201 48.589 14.4885 48.7426 14.4256C48.8962 14.3628 49.0358 14.2699 49.1531 14.1526C49.2705 14.0352 49.3633 13.8956 49.4262 13.742C49.489 13.5884 49.5207 13.4238 49.5192 13.2578C49.5178 13.0919 49.4833 12.9278 49.4178 12.7753C49.3523 12.6228 49.257 12.4849 49.1377 12.3696L48.3001 11.5321C50.6755 9.51699 53.622 8.29575 56.7264 8.03958V9.22583C56.7264 9.55735 56.8581 9.8753 57.0925 10.1097C57.327 10.3441 57.6449 10.4758 57.9764 10.4758C58.3079 10.4758 58.6259 10.3441 58.8603 10.1097C59.0947 9.8753 59.2264 9.55735 59.2264 9.22583V8.03958C62.3309 8.29575 65.2773 9.51699 67.6527 11.5321L66.8152 12.3696C66.6958 12.4849 66.6006 12.6228 66.5351 12.7753C66.4696 12.9278 66.4351 13.0919 66.4336 13.2578C66.4322 13.4238 66.4638 13.5884 66.5267 13.742C66.5895 13.8956 66.6823 14.0352 66.7997 14.1526C66.9171 14.2699 67.0566 14.3628 67.2103 14.4256C67.3639 14.4885 67.5285 14.5201 67.6945 14.5186C67.8604 14.5172 68.0245 14.4827 68.177 14.4172C68.3295 14.3517 68.4674 14.2565 68.5827 14.1371L69.4202 13.2996C71.4353 15.675 72.6566 18.6214 72.9127 21.7258H71.7265C71.3949 21.7258 71.077 21.8575 70.8426 22.092C70.6082 22.3264 70.4765 22.6443 70.4765 22.9758C70.4765 23.3074 70.6082 23.6253 70.8426 23.8597C71.077 24.0941 71.3949 24.2258 71.7265 24.2258H72.9127C72.6566 27.3303 71.4353 30.2767 69.4202 32.6521L68.5827 31.8146Z" fill="#CB10BF"/>
</g>
</g>
</svg>
