<svg width="81" height="80" viewBox="0 0 81 80" fill="none" xmlns="http://www.w3.org/2000/svg">
<path fill-rule="evenodd" clip-rule="evenodd" d="M52.7836 12.7715C55.6998 9.39153 57.6656 4.68392 57.1277 0C52.9251 0.16 47.8408 2.68459 44.8274 6.06055C42.1215 9.05651 39.7593 13.8436 40.3944 18.4355C45.0823 18.7835 49.8673 16.1554 52.7836 12.7715ZM63.2959 42.5C63.4132 54.6078 74.3786 58.6355 74.5 58.6875C74.411 58.9715 72.7486 64.4265 68.724 70.0664C65.2415 74.9384 61.6295 79.7905 55.9385 79.8945C50.3486 79.9945 48.5487 76.7188 42.1539 76.7188C35.7631 76.7188 33.765 79.7902 28.4744 79.9942C22.9816 80.1902 18.7952 74.7231 15.2884 69.8672C8.11294 59.9353 2.63226 41.8004 9.99377 29.5606C13.6503 23.4846 20.1826 19.6312 27.2771 19.5352C32.6688 19.4352 37.7612 23.0117 41.0577 23.0117C44.3542 23.0117 50.5427 18.7118 57.0467 19.3438C59.7689 19.4518 67.4135 20.3954 72.3198 27.2793C71.9235 27.5153 63.1989 32.3802 63.2959 42.5Z" fill="black"/>
</svg>
