<svg width="81" height="80" viewBox="0 0 81 80" fill="none" xmlns="http://www.w3.org/2000/svg">
<path fill-rule="evenodd" clip-rule="evenodd" d="M78.1307 44.1794C77.9734 44.1765 77.8171 44.2049 77.671 44.2631C77.5248 44.3212 77.3917 44.4079 77.2794 44.5181C77.1671 44.6283 77.0779 44.7598 77.017 44.9048C76.9562 45.0499 76.9248 45.2056 76.9248 45.3629C76.9248 45.5203 76.9562 45.676 77.017 45.8211C77.0779 45.9661 77.1671 46.0976 77.2794 46.2078C77.3917 46.318 77.5248 46.4047 77.671 46.4628C77.8171 46.521 77.9734 46.5494 78.1307 46.5465C78.2862 46.5463 78.4401 46.5155 78.5836 46.4557C78.7271 46.396 78.8574 46.3085 78.9671 46.1983C79.0768 46.0881 79.1636 45.9574 79.2226 45.8136C79.2817 45.6698 79.3117 45.5157 79.3111 45.3602C79.3112 45.2052 79.2807 45.0517 79.2214 44.9084C79.1621 44.7651 79.0752 44.6349 78.9656 44.5253C78.8559 44.4156 78.7258 44.3286 78.5825 44.2693C78.4393 44.21 78.2858 44.1794 78.1307 44.1794ZM78.1307 46.4041C77.9937 46.4043 77.858 46.3774 77.7315 46.3249C77.6049 46.2725 77.49 46.1956 77.3932 46.0986C77.2965 46.0016 77.2199 45.8864 77.1678 45.7597C77.1157 45.633 77.0892 45.4972 77.0897 45.3602C77.0898 45.2237 77.1168 45.0885 77.1692 44.9624C77.2215 44.8363 77.2983 44.7217 77.3949 44.6253C77.4916 44.5289 77.6064 44.4525 77.7326 44.4005C77.8589 44.3485 77.9942 44.3219 78.1307 44.3222C78.267 44.3222 78.402 44.349 78.5279 44.4012C78.6538 44.4534 78.7682 44.5299 78.8646 44.6263C78.9609 44.7227 79.0374 44.8371 79.0895 44.963C79.1416 45.089 79.1684 45.2239 79.1684 45.3602C79.169 45.497 79.1427 45.6325 79.0908 45.7591C79.039 45.8856 78.9627 46.0007 78.8663 46.0976C78.7699 46.1946 78.6553 46.2716 78.5291 46.3242C78.4028 46.3768 78.2675 46.404 78.1307 46.4041Z" fill="black"/>
<path fill-rule="evenodd" clip-rule="evenodd" d="M78.7376 45.0505C78.7376 44.9388 78.6882 44.8214 78.5894 44.7653C78.4898 44.7064 78.3786 44.7006 78.2669 44.7006H77.6904V46.0234H77.8519V45.4132H78.1494L78.5271 46.0234H78.7193L78.3196 45.4132C78.5554 45.4066 78.7376 45.3107 78.7376 45.0505ZM78.0996 45.2858H77.8514V44.818H78.2291C78.3935 44.818 78.5736 44.8429 78.5736 45.0476C78.5741 45.3169 78.2852 45.2858 78.0996 45.2858ZM71.1927 38.6553L73.6124 36.0715C73.7527 35.8818 73.8225 35.749 73.8225 35.6353C73.8225 35.4456 73.6593 35.3697 73.1463 35.3697H72.5358V33.7385H79.1443V35.3697H78.276C77.2733 35.3697 77.0869 35.5212 75.6877 37.2851L71.8597 41.4191V43.9419C71.8597 44.5873 72.1855 44.8143 73.1185 44.8143H74.5638V46.3882H65.3075V44.8143H66.7528C67.685 44.8143 68.0117 44.5873 68.0117 43.9419V41.4191L63.5029 36.4314C62.7578 35.5593 62.8608 35.3697 60.7863 35.3697V33.7385H69.1572V35.3697H68.5612C67.9548 35.3697 67.6979 35.4834 67.6979 35.7108C67.6979 35.9009 67.8842 36.0524 68.0009 36.2039L70.282 38.6901C70.5531 38.9719 70.8839 39.0085 71.1927 38.6553ZM15.0282 33.7381H17.0475V38.2896H15.1826C15.0174 37.3798 14.448 37.0257 13.9287 36.5484C12.9919 35.6876 10.9631 34.9708 9.25682 34.9708C7.05452 34.9708 5.19589 35.654 5.19589 36.6584C5.19589 39.4468 17.7908 37.2279 17.7908 42.4999C17.7908 45.2497 15.093 46.7858 10.248 46.7858C8.57073 46.7858 6.03265 46.2654 4.53512 45.4701C4.06569 45.1991 3.86646 45.7266 3.77847 46.3878H1.70816V41.6844H3.5809C3.99388 42.8793 4.56293 43.1254 5.08632 43.5998C5.99446 44.4345 8.15609 45.0418 10.1384 45.0223C13.1272 44.9928 14.1549 44.3395 14.1549 43.3911C14.1549 42.4431 13.1384 42.2152 9.86322 41.7034L7.08233 41.2481C3.94408 40.7737 1.65918 40.0723 1.65918 37.569C1.65918 34.9708 4.54965 33.3396 9.11985 33.3396C11.0457 33.3396 12.657 33.5969 14.2035 34.4711C14.6318 34.7496 15.0336 34.7828 15.0282 33.7381ZM54.4355 41.3585L54.4753 36.2998C54.4753 35.6361 54.13 35.4087 53.1434 35.4087H51.9842V33.8348H59.3598V35.4087H58.3985C57.4111 35.4087 57.0657 35.6365 57.0657 36.2998V46.4841L54.179 46.4613L44.8302 37.6085V44.0377C44.8302 44.6827 45.1756 44.9289 46.1621 44.9289H47.4455V46.4841H39.7856V44.9289H41.0549C42.0414 44.9289 42.3868 44.6823 42.3868 44.0377V36.2998C42.3868 35.6361 42.0414 35.4087 41.0549 35.4087H39.7856V33.8348H46.4083L54.4355 41.3585ZM29.73 33.2441C23.8519 33.2441 20.1724 35.8428 20.1724 40.0146C20.1724 44.1116 23.8009 46.6904 29.5507 46.6904C35.6579 46.6904 39.2103 44.1494 39.2103 39.8062C39.2108 35.8997 35.3773 33.2441 29.73 33.2441ZM29.5963 45.0409C26.3427 45.0409 24.4724 43.1632 24.4724 39.9199C24.4724 36.753 26.4241 34.8753 29.759 34.8753C32.9583 34.8753 34.8286 36.7912 34.8286 40.0532C34.8286 43.2392 32.9309 45.0409 29.5963 45.0409Z" fill="black"/>
</svg>
