<svg width="81" height="80" viewBox="0 0 81 80" fill="none" xmlns="http://www.w3.org/2000/svg">
<g clip-path="url(#clip0_236_45)">
<path d="M56.4816 36.4131C56.4816 40.0845 53.5053 43.0606 49.834 43.0606C46.1626 43.0606 43.1865 40.0844 43.1865 36.4131V25.782C43.1865 22.1106 46.1628 19.1345 49.834 19.1345C53.5055 19.1345 56.4816 22.1108 56.4816 25.782V36.4131Z" stroke="#CB10BF" stroke-width="2.34374" stroke-miterlimit="10" stroke-linecap="round" stroke-linejoin="round"/>
<path d="M23.9044 5.80596L8.2095 10.4563C7.13699 10.7741 6.40137 11.7591 6.40137 12.8777C6.40137 17.1578 6.40137 27.9885 6.40137 37.6655C6.40137 63.1063 31.3557 75.4054 38.5679 78.4288C39.8029 78.9464 41.1935 78.9464 42.4285 78.4288C49.6407 75.4054 74.595 63.1063 74.595 37.6655V12.878C74.595 11.7594 73.8592 10.7741 72.7869 10.4564L42.2918 1.4208C41.121 1.07393 39.8749 1.07393 38.7041 1.4208L28.4885 4.44768" stroke="black" stroke-width="2.34374" stroke-miterlimit="10" stroke-linecap="round" stroke-linejoin="round"/>
<path d="M44.7343 71.7758C53.7931 67.1206 69.5391 56.3356 69.5391 37.6634V14.7622L40.8526 6.262C40.6165 6.19294 40.3685 6.19294 40.136 6.262L11.4482 14.7622V37.6634C11.4482 59.8347 33.6485 70.8858 40.4937 73.7586" stroke="black" stroke-width="2.34374" stroke-miterlimit="10" stroke-linecap="round" stroke-linejoin="round"/>
<path d="M40.5208 73.7709H40.522C40.5208 73.7709 40.5197 73.7698 40.5186 73.7698C40.5197 73.7698 40.5208 73.7698 40.5208 73.7709Z" stroke="black" stroke-width="2.34374" stroke-miterlimit="10" stroke-linecap="round" stroke-linejoin="round"/>
<path d="M29.7881 42.4174C29.7881 42.4174 36.9861 37.0635 38.147 26.9536" stroke="#CB10BF" stroke-width="2.34374" stroke-miterlimit="10" stroke-linecap="round" stroke-linejoin="round"/>
<path d="M31.4265 32.7622C35.1792 32.7622 38.2213 29.7201 38.2213 25.9675C38.2213 22.2149 35.1792 19.1729 31.4265 19.1729C27.6739 19.1729 24.6318 22.2149 24.6318 25.9675C24.6318 29.7201 27.6739 32.7622 31.4265 32.7622Z" stroke="#CB10BF" stroke-width="2.34374" stroke-miterlimit="10" stroke-linecap="round" stroke-linejoin="round"/>
<path d="M21.5931 49.375H24.3623C25.2982 49.375 26.0675 49.6089 26.67 50.0769C27.279 50.5384 27.5835 51.1859 27.5835 52.0192V53.4519C27.5835 54.3237 27.2886 54.9839 26.6989 55.4327C26.1091 55.8814 25.3335 56.1057 24.372 56.1057H21.5931C21.5226 56.1057 21.4617 56.0801 21.4104 56.0288C21.3591 55.9775 21.3335 55.9166 21.3335 55.8461V49.6346C21.3335 49.5641 21.3591 49.5032 21.4104 49.4519C21.4617 49.4006 21.5226 49.375 21.5931 49.375ZM23.7373 51.25V54.2307H24.3623C24.5803 54.2307 24.7534 54.1666 24.8816 54.0384C25.0162 53.9038 25.0835 53.7083 25.0835 53.4519V52.0192C25.0835 51.5064 24.8431 51.25 24.3623 51.25H23.7373Z" fill="black"/>
<path d="M30.8601 56.1057H28.8986C28.8281 56.1057 28.7672 56.0801 28.7159 56.0288C28.6646 55.9775 28.639 55.9166 28.639 55.8461V49.6346C28.639 49.5641 28.6646 49.5032 28.7159 49.4519C28.7672 49.4006 28.8281 49.375 28.8986 49.375H30.8601C30.9306 49.375 30.9915 49.4006 31.0428 49.4519C31.0941 49.5032 31.1197 49.5641 31.1197 49.6346V55.8461C31.1197 55.9166 31.0941 55.9775 31.0428 56.0288C30.9915 56.0801 30.9306 56.1057 30.8601 56.1057Z" fill="black"/>
<path d="M34.6745 54.2307H37.636C37.7066 54.2307 37.7675 54.2564 37.8187 54.3077C37.87 54.3589 37.8957 54.4198 37.8957 54.4904V55.8461C37.8957 55.9166 37.87 55.9775 37.8187 56.0288C37.7675 56.0801 37.7066 56.1057 37.636 56.1057H32.6264C32.5559 56.1057 32.495 56.0801 32.4437 56.0288C32.3924 55.9775 32.3668 55.9166 32.3668 55.8461V49.6346C32.3668 49.5641 32.3924 49.5032 32.4437 49.4519C32.495 49.4006 32.5559 49.375 32.6264 49.375H37.5591C37.6296 49.375 37.6905 49.4006 37.7418 49.4519C37.7931 49.5032 37.8187 49.5641 37.8187 49.6346V50.9904C37.8187 51.0609 37.7931 51.1218 37.7418 51.173C37.6905 51.2243 37.6296 51.25 37.5591 51.25H34.6745V51.8557H37.3476C37.4181 51.8557 37.479 51.8814 37.5303 51.9327C37.5816 51.9839 37.6072 52.0448 37.6072 52.1154V53.3654C37.6072 53.4359 37.5816 53.4968 37.5303 53.548C37.479 53.5993 37.4181 53.625 37.3476 53.625H34.6745V54.2307Z" fill="black"/>
<path d="M43.1102 49.375H44.8506C44.9211 49.375 44.982 49.4006 45.0333 49.4519C45.0846 49.5032 45.1102 49.5641 45.1102 49.6346V55.8461C45.1102 55.9166 45.0846 55.9775 45.0333 56.0288C44.982 56.0801 44.9211 56.1057 44.8506 56.1057H43.3314C43.1647 56.1057 43.0333 56.032 42.9371 55.8846L41.3121 53.4327V55.8461C41.3121 55.9166 41.2865 55.9775 41.2352 56.0288C41.1839 56.0801 41.123 56.1057 41.0525 56.1057H39.3121C39.2416 56.1057 39.1807 56.0801 39.1294 56.0288C39.0782 55.9775 39.0525 55.9166 39.0525 55.8461V49.6346C39.0525 49.5641 39.0782 49.5032 39.1294 49.4519C39.1807 49.4006 39.2416 49.375 39.3121 49.375H40.8314C41.0108 49.375 41.1423 49.4487 41.2256 49.5961L42.8506 52.2596V49.6346C42.8506 49.5641 42.8762 49.5032 42.9275 49.4519C42.9788 49.4006 43.0397 49.375 43.1102 49.375Z" fill="black"/>
<path d="M48.4637 49.375H50.5503C50.7811 49.375 50.9253 49.4807 50.983 49.6923L53.1272 55.8269C53.1336 55.8461 53.1368 55.8782 53.1368 55.9231C53.1368 55.9615 53.1144 56.0032 53.0695 56.0481C53.0311 56.0865 52.983 56.1057 52.9253 56.1057H51.1464C50.9541 56.1057 50.8291 56.0256 50.7714 55.8654L50.5407 55.2307H48.4734L48.2426 55.8654C48.1849 56.0256 48.0599 56.1057 47.8676 56.1057H46.0887C46.031 56.1057 45.9798 56.0865 45.9349 56.0481C45.8964 56.0032 45.8772 55.9615 45.8772 55.9231C45.8772 55.8782 45.8804 55.8461 45.8868 55.8269L48.031 49.6923C48.0887 49.4807 48.233 49.375 48.4637 49.375ZM48.9637 53.3557H50.0503L49.5022 51.5673L48.9637 53.3557Z" fill="black"/>
<path d="M53.7345 51.4904C53.7345 50.8365 54.0037 50.3045 54.5422 49.8942C55.087 49.4839 55.7986 49.2788 56.6768 49.2788C57.5614 49.2788 58.2826 49.4936 58.8403 49.923C59.4044 50.3525 59.6864 50.8012 59.6864 51.2692C59.6864 51.3269 59.664 51.3782 59.6191 51.423C59.5807 51.4615 59.5358 51.4807 59.4845 51.4807H57.5614C57.414 51.4807 57.2794 51.4262 57.1576 51.3173C57.0358 51.2083 56.8723 51.1538 56.6672 51.1538C56.3595 51.1538 56.2056 51.2436 56.2056 51.423C56.2056 51.5192 56.2794 51.5993 56.4268 51.6634C56.5806 51.7275 56.8627 51.7852 57.273 51.8365C58.2281 51.9583 58.9076 52.1827 59.3114 52.5096C59.7217 52.8301 59.9268 53.3205 59.9268 53.9807C59.9268 54.6346 59.6255 55.1698 59.023 55.5865C58.4268 55.9968 57.6447 56.2019 56.6768 56.2019C55.7088 56.2019 54.9492 56.0032 54.3979 55.6057C53.8467 55.2083 53.571 54.7243 53.571 54.1538C53.571 54.0961 53.5903 54.048 53.6287 54.0096C53.6736 53.9647 53.7249 53.9423 53.7826 53.9423H55.6095C55.7441 53.9423 55.8915 54.0064 56.0518 54.1346C56.2185 54.2628 56.446 54.3269 56.7345 54.3269C57.2153 54.3269 57.4556 54.2372 57.4556 54.0577C57.4556 53.9423 57.3691 53.8557 57.196 53.798C57.023 53.7339 56.696 53.6698 56.2153 53.6057C54.5614 53.3878 53.7345 52.6827 53.7345 51.4904Z" fill="black"/>
</g>
<defs>
<clipPath id="clip0_236_45">
<rect width="80.0002" height="80" fill="white" transform="translate(0.5)"/>
</clipPath>
</defs>
</svg>
