<svg width="33" height="32" viewBox="0 0 33 32" fill="none" xmlns="http://www.w3.org/2000/svg">
<g id="icon/laptop">
<g id="Vector">
<path fill-rule="evenodd" clip-rule="evenodd" d="M7.68425 7.3922V20.3835H25.3554V7.3922H7.68425ZM6.88465 4.66675C6.00143 4.66675 5.28544 5.48023 5.28544 6.48372V23.109H27.7542V6.48372C27.7542 5.48023 27.0382 4.66675 26.155 4.66675H6.88465Z" fill="black"/>
<path fill-rule="evenodd" clip-rule="evenodd" d="M5.5653 23.109V23.6995C5.5653 24.2012 5.9233 24.608 6.36491 24.608H26.6348C27.0764 24.608 27.4344 24.2012 27.4344 23.6995V23.109H5.5653ZM4.7657 20.3835C3.88249 20.3835 3.1665 21.197 3.1665 22.2005V23.6995C3.1665 25.7064 4.59848 27.3334 6.36491 27.3334H26.6348C28.4012 27.3334 29.8332 25.7064 29.8332 23.6995V22.2005C29.8332 21.197 29.1172 20.3835 28.234 20.3835H4.7657Z" fill="black"/>
</g>
</g>
</svg>
