<svg width="69" height="80" viewBox="0 0 69 80" fill="none" xmlns="http://www.w3.org/2000/svg">
<g id="Page-1">
<g id="Dribbble-Light-Preview">
<g id="icons">
<path id="apple-[#173]" fill-rule="evenodd" clip-rule="evenodd" d="M46.7836 12.7715C49.6998 9.39153 51.6656 4.68392 51.1277 0C46.9251 0.16 41.8408 2.68459 38.8274 6.06055C36.1215 9.05651 33.7593 13.8436 34.3944 18.4355C39.0823 18.7835 43.8673 16.1554 46.7836 12.7715ZM57.2959 42.5C57.4132 54.6078 68.3786 58.6355 68.5 58.6875C68.411 58.9715 66.7486 64.4265 62.724 70.0664C59.2415 74.9384 55.6295 79.7905 49.9385 79.8945C44.3486 79.9945 42.5487 76.7188 36.1539 76.7188C29.7631 76.7188 27.765 79.7902 22.4744 79.9941C16.9816 80.1901 12.7952 74.7231 9.28839 69.8672C2.11294 59.9353 -3.36774 41.8004 3.99377 29.5606C7.65026 23.4846 14.1826 19.6312 21.2771 19.5352C26.6688 19.4352 31.7612 23.0117 35.0577 23.0117C38.3542 23.0117 44.5427 18.7118 51.0467 19.3438C53.7689 19.4518 61.4135 20.3954 66.3198 27.2793C65.9235 27.5153 57.1989 32.3802 57.2959 42.5Z" fill="black"/>
</g>
</g>
</g>
</svg>
