<svg width="81" height="80" viewBox="0 0 81 80" fill="none" xmlns="http://www.w3.org/2000/svg">
<g id="samsung" clip-path="url(#clip0_366_509)">
<path id="Vector" d="M66.555 34.2699L66.7125 43.2424H66.635L64.03 34.2699H59.76V45.5724H62.585L62.4275 36.2874H62.505L65.2925 45.5724H69.38V34.2699H66.555ZM12.7275 34.2699L10.5925 45.6899H13.6775L15.2525 35.2999H15.3175L16.855 45.6899H19.915L17.805 34.2699H12.7275ZM29.9925 34.2699L28.585 42.9799H28.5075L27.0875 34.2699H22.425L22.2025 45.6899H25.0675L25.145 35.4174H25.17L27.085 45.6899H29.9875L31.9025 35.4174H31.98L32.0575 45.6899H34.9225L34.65 34.2699H29.9925ZM5.7725 42.4474C5.89 42.7074 5.85 43.0974 5.8125 43.2799C5.735 43.6699 5.46 44.0474 4.705 44.0474C3.975 44.0474 3.56 43.6299 3.56 43.0199V41.9124H0.5V42.7849C0.5 45.3499 2.5175 46.1049 4.6675 46.1049C6.725 46.1049 8.4425 45.3899 8.7175 43.5149C8.875 42.5249 8.7575 41.8749 8.7175 41.6399C8.1825 39.2299 3.8225 38.5549 3.5225 37.2124C3.4825 36.9774 3.4825 36.7574 3.5225 36.5999C3.6 36.2224 3.86 35.8324 4.55 35.8324C5.24 35.8324 5.6175 36.2499 5.6175 36.8599V37.5499H8.4825V36.7549C8.4825 34.2674 6.23 33.8899 4.6275 33.8899C2.595 33.8899 0.9175 34.5674 0.6175 36.4024C0.54 36.8974 0.5 37.3649 0.6575 37.9399C1.1125 40.2974 5.2025 40.9874 5.775 42.4449L5.7725 42.4474ZM42.9475 42.4474C43.065 42.7074 43.025 43.0599 42.9875 43.2799C42.91 43.6699 42.635 44.0474 41.88 44.0474C41.15 44.0474 40.735 43.6299 40.735 43.0199V41.9124H37.675V42.7849C37.675 45.3099 39.655 46.0799 41.8025 46.0799C43.86 46.0799 45.54 45.3899 45.8125 43.4749C45.97 42.4849 45.8525 41.8724 45.8125 41.5999C45.3575 39.2299 41.035 38.5149 40.735 37.2124C40.695 36.9774 40.695 36.7574 40.735 36.5999C40.8 36.2224 41.0725 35.8324 41.7625 35.8324C42.4125 35.8324 42.83 36.2499 42.83 36.8599V37.5499H45.655V36.7549C45.655 34.2674 43.4425 33.8899 41.84 33.8899C39.8075 33.8899 38.1675 34.5274 37.8675 36.4024C37.79 36.8974 37.79 37.3649 37.8925 37.9399C38.3625 40.2974 42.3725 40.9474 42.945 42.4449L42.9475 42.4474ZM52.57 43.9724C53.3775 43.9724 53.5975 43.4374 53.6775 43.1399C53.7175 43.0224 53.7175 42.8274 53.7175 42.7099V34.2724H56.62V42.4874C56.62 42.7099 56.62 43.1374 56.58 43.2424C56.3975 45.3899 54.705 46.0799 52.6075 46.0799C50.51 46.0799 48.8325 45.3899 48.635 43.2424C48.635 43.1374 48.595 42.7074 48.595 42.4874V34.2724H51.4975V42.7099C51.4975 42.8674 51.4975 43.0224 51.5375 43.1399C51.5375 43.4399 51.7725 43.9724 52.565 43.9724H52.57ZM76.4125 43.8549C77.26 43.8549 77.52 43.3199 77.5975 43.0224C77.6375 42.9049 77.6375 42.7099 77.6375 42.6049V40.9524H76.4525V39.2724H80.5025V42.3324C80.5025 42.5674 80.5025 42.7099 80.4625 43.0999C80.2675 45.1974 78.47 45.9249 76.4525 45.9249C74.42 45.9249 72.6375 45.1949 72.4425 43.0999C72.4025 42.7099 72.4025 42.5649 72.4025 42.3324V37.5149C72.4025 37.3324 72.4425 36.9424 72.4425 36.7599C72.7025 34.6124 74.4225 33.9224 76.4525 33.9224C78.47 33.9224 80.2275 34.6124 80.4625 36.7599C80.5025 37.0974 80.5025 37.5149 80.5025 37.5149V37.9049H77.6375V37.2549C77.6375 37.2549 77.6375 36.9824 77.5975 36.8249C77.5575 36.5649 77.325 35.9924 76.4525 35.9924C75.605 35.9924 75.385 36.5274 75.3075 36.8249C75.2675 36.9824 75.2675 37.1774 75.2675 37.3724V42.6074C75.2675 42.7499 75.2675 42.9074 75.3075 43.0249C75.3075 43.3249 75.6075 43.8574 76.415 43.8574L76.4125 43.8549Z" fill="black"/>
</g>
<defs>
<clipPath id="clip0_366_509">
<rect width="80" height="80" fill="white" transform="translate(0.5)"/>
</clipPath>
</defs>
</svg>
