<svg width="81" height="80" viewBox="0 0 81 80" fill="none" xmlns="http://www.w3.org/2000/svg">
<g id="xiaomi" clip-path="url(#clip0_366_527)">
<path id="Vector" d="M67.0333 66.6666C66.7504 66.6666 66.4791 66.5542 66.2791 66.3542C66.079 66.1542 65.9667 65.8829 65.9667 65.6V14.4C65.9667 14.1171 66.079 13.8457 66.2791 13.6457C66.4791 13.4457 66.7504 13.3333 67.0333 13.3333H79.4C79.5429 13.3288 79.6852 13.3531 79.8184 13.4047C79.9517 13.4563 80.0733 13.5342 80.1759 13.6337C80.2785 13.7332 80.3601 13.8523 80.4157 13.9839C80.4714 14.1155 80.5001 14.257 80.5 14.4V65.6C80.5001 65.7429 80.4714 65.8844 80.4157 66.016C80.3601 66.1476 80.2785 66.2667 80.1759 66.3662C80.0733 66.4657 79.9517 66.5436 79.8184 66.5952C79.6852 66.6468 79.5429 66.6711 79.4 66.6666H67.0333ZM46.3 66.6666C46.3 66.6666 45.3 66.3666 45.3 65.6V34.1666C45.3315 33.1873 45.1646 32.2116 44.8094 31.2984C44.4541 30.3852 43.9179 29.5533 43.2328 28.8527C42.5478 28.1521 41.7281 27.5972 40.8231 27.2216C39.9181 26.8459 38.9465 26.6571 37.9667 26.6666H14.8333C13.5 26.6666 13.8333 27.6666 13.8333 27.6666V65.6C13.8333 66.5 12.8333 66.6666 12.8333 66.6666H1.6C1.45714 66.6711 1.31485 66.6468 1.18156 66.5952C1.04827 66.5436 0.926718 66.4657 0.824111 66.3662C0.721504 66.2667 0.63994 66.1476 0.584262 66.016C0.528585 65.8844 0.49993 65.7429 0.5 65.6V14.4C0.49993 14.257 0.528585 14.1155 0.584262 13.9839C0.63994 13.8523 0.721504 13.7332 0.824111 13.6337C0.926718 13.5342 1.04827 13.4563 1.18156 13.4047C1.31485 13.3531 1.45714 13.3288 1.6 13.3333H44.4667C48.2273 13.3596 51.8254 14.8698 54.4784 17.5353C57.1314 20.2007 58.6246 23.8059 58.6333 27.5666L58.6667 65.6C58.6667 65.8829 58.5543 66.1542 58.3542 66.3542C58.1542 66.5542 57.8829 66.6666 57.6 66.6666H46.3ZM23.3 66.6666C23.0348 66.6666 22.7804 66.5613 22.5929 66.3737C22.4054 66.1862 22.3 65.9318 22.3 65.6666V35.6666C22.3 35.4014 22.4054 35.1471 22.5929 34.9595C22.7804 34.772 23.0348 34.6666 23.3 34.6666H35.8667C36.1261 34.6753 36.3719 34.7844 36.5523 34.971C36.7327 35.1576 36.8335 35.4071 36.8333 35.6666V65.6666C36.8333 65.9318 36.728 66.1862 36.5404 66.3737C36.3529 66.5613 36.0985 66.6666 35.8333 66.6666H23.3Z" fill="black"/>
</g>
<defs>
<clipPath id="clip0_366_527">
<rect width="80" height="80" fill="white" transform="translate(0.5)"/>
</clipPath>
</defs>
</svg>
